<?xml version="1.0" standalone="no"?><!DOCTYPE svg PUBLIC "-//W3C//DTD SVG 1.1//EN" "http://www.w3.org/Graphics/SVG/1.1/DTD/svg11.dtd"><svg t="1760001506981" class="icon" viewBox="0 0 1024 1024" version="1.1" xmlns="http://www.w3.org/2000/svg" p-id="18369" xmlns:xlink="http://www.w3.org/1999/xlink" width="200" height="200"><path d="M450.88 904.064h59.2l-31.232-69.12L421.376 960h-26.24l69.952-150.208c2.752-6.016 7.872-9.728 13.504-9.792 5.632 0 10.88 3.584 13.696 9.536l70.08 150.4h-26.176l-12.288-27.968H464l-13.184-27.904h0.128z m271.552 27.904V801.536h-22.208v143.168c0 3.904 1.152 7.68 3.2 10.624a10.24 10.24 0 0 0 8.192 4.608h101.12l13.056-27.904H722.368h0.064z m-367.04-23.296c22.848-1.664 40.32-25.6 39.04-53.568 1.28-27.968-16.192-51.84-39.04-53.568h-97.088V960h22.208V829.44h73.28a16.64 16.64 0 0 1 13.184 7.552 32.832 32.832 0 0 1 0 36.224 16.64 16.64 0 0 1-13.184 7.552h-62.464l66.24 79.168h32.256l-44.608-51.328h10.24z m-233.6 51.2c-33.728-2.432-59.52-37.76-57.728-79.104-1.792-41.344 24-76.736 57.728-79.232h67.072c33.728 2.56 59.52 37.888 57.6 79.168 1.92 41.344-23.872 76.736-57.6 79.232h-67.072z m65.536-27.84c21.888-1.664 38.528-24.576 37.376-51.328 1.152-26.752-15.552-49.6-37.376-51.2h-64c-21.888 1.6-38.592 24.512-37.44 51.2-1.152 26.816 15.552 49.664 37.376 51.328h64.064z m421.248 27.904c-33.728-2.56-59.52-37.888-57.728-79.168-1.792-41.408 24-76.8 57.792-79.232h79.68l-13.056 27.904h-65.088c-21.888 1.6-38.592 24.512-37.376 51.264-1.216 26.752 15.488 49.664 37.376 51.328h80l-13.056 27.904h-68.544zM880 932.032c-17.536-0.896-32.32-16.256-35.84-37.312h94.72L952 866.752H844.16c3.52-21.056 18.368-36.48 35.904-37.312h65.152l13.12-27.904h-79.744c-33.728 2.56-59.52 37.888-57.728 79.168-1.792 41.344 24 76.736 57.728 79.232h68.48l12.992-27.904h-80z" fill="#290808" p-id="18370"></path><path d="M367.872 640C235.008 638.72 128 524.416 128 384s107.008-254.72 239.872-256h283.712c87.04-0.832 167.808 47.744 211.584 127.36a268.736 268.736 0 0 1 0 257.28C819.392 592.256 738.624 640.832 651.584 640H367.872m276.352-90.496c86.4 0 156.544-74.112 156.544-165.504s-70.08-165.504-156.544-165.504H375.168a151.872 151.872 0 0 0-110.848 48.32 169.92 169.92 0 0 0-45.696 117.12c0.64 91.2 70.336 164.928 156.544 165.568h269.056" fill="#FF0000" p-id="18371"></path></svg>