<?xml version="1.0" standalone="no"?><!DOCTYPE svg PUBLIC "-//W3C//DTD SVG 1.1//EN" "http://www.w3.org/Graphics/SVG/1.1/DTD/svg11.dtd"><svg t="1760001593233" class="icon" viewBox="0 0 1024 1024" version="1.1" xmlns="http://www.w3.org/2000/svg" p-id="21889" xmlns:xlink="http://www.w3.org/1999/xlink" width="200" height="200"><path d="M288.621714 427.154286c-1.097143 36.278857 16.969143 52.297143 17.408 62.537143a13.092571 13.092571 0 0 1-6.582857 10.020571l-20.48 14.336a17.042286 17.042286 0 0 1-8.923428 3.072c-0.731429 0-13.165714 2.925714-32.768-40.96a125.805714 125.805714 0 0 1-100.205715 47.104c-26.038857 1.462857-96.621714-14.774857-93.037714-89.965714-2.486857-61.220571 54.491429-99.254857 113.517714-96.036572 11.337143 0 34.596571 0.585143 75.190857 10.020572v-25.014857c4.315429-42.349714-23.552-75.190857-71.68-70.217143-3.876571 0-31.085714-0.804571-73.362285 16.091428-11.776 5.485714-13.312 4.608-17.188572 4.608-11.849143 0-7.021714-34.377143-4.754285-38.765714 8.338286-10.24 57.417143-29.330286 105.545142-29.110857 32.182857-2.779429 64.146286 7.094857 89.088 27.648a112.493714 112.493714 0 0 1 28.306286 83.821714V427.154286z m-138.24 51.931428c51.931429-0.804571 73.874286-32.036571 78.848-48.786285 3.949714-16.091429 3.291429-26.331429 3.291429-43.885715a275.017143 275.017143 0 0 0-63.268572-7.753143c-24.283429-1.828571-68.534857 8.996571-66.779428 51.565715a44.470857 44.470857 0 0 0 47.908571 48.786285z m273.481143 36.790857c-12.580571 1.170286-18.432-7.753143-20.260571-16.603428l-79.725715-263.387429a61.074286 61.074286 0 0 1-3.072-13.750857 7.314286 7.314286 0 0 1 6.217143-8.411428h35.547429c14.043429-1.389714 18.651429 9.654857 20.114286 16.603428l57.124571 225.28 53.101714-225.28c0.804571-5.12 4.681143-17.700571 20.48-16.384h27.428572c3.437714-0.292571 17.773714-0.731429 20.260571 16.603429l53.467429 228.205714 59.026285-228.205714c0.731429-3.510857 4.388571-18.212571 20.260572-16.603429h31.597714c1.316571-0.219429 9.801143-1.316571 8.411429 13.750857-0.731429 2.925714 5.412571-17.042286-84.406857 271.798857-1.901714 8.777143-7.753143 17.773714-20.333715 16.603429h-29.915428c-17.481143 1.828571-19.968-15.433143-20.260572-17.188571l-53.028571-219.428572-52.443429 219.209143c-0.292571 1.755429-2.779429 19.017143-20.333714 17.188571h-29.257143z m437.540572 8.996572c-9.362286 0-54.272-0.438857-91.721143-19.602286a20.48 20.48 0 0 1-12.507429-19.017143v-17.261714c0-13.531429 9.874286-11.044571 14.116572-9.435429 16.091429 6.509714 26.331429 11.410286 46.08 15.36 58.660571 12.068571 84.406857-3.657143 90.697142-7.168a36.790857 36.790857 0 0 0 8.484572-55.881142c-16.822857-14.116571-24.795429-14.628571-85.065143-33.645715-7.387429-2.048-69.924571-21.796571-69.997714-83.748571-1.024-45.202286 40.082286-89.965714 111.177143-89.526857 20.260571 0 74.313143 6.582857 88.941714 25.014857 2.194286 3.291429 3.218286 7.314286 3.072 11.264v16.091428c0 7.168-2.633143 10.678857-7.826286 10.678858-12.288-1.316571-34.230857-17.846857-78.628571-17.188572-10.971429-0.585143-63.853714 1.462857-61.44 39.936-0.731429 30.354286 42.569143 41.691429 47.542857 43.081143 58.294857 17.554286 77.824 20.48 100.937143 47.323429 27.428571 35.547429 12.653714 77.238857 6.948571 88.722285-30.500571 59.977143-109.421714 55.076571-110.811428 55.003429z" fill="#000000" p-id="21890"></path><path d="M925.769143 681.252571c-112.054857 82.724571-274.724571 126.829714-413.622857 126.829715a750.592 750.592 0 0 1-507.611429-193.170286C-5.924571 605.403429 3.291429 592.457143 16.018286 599.771429a1019.757714 1019.757714 0 0 0 507.026285 134.582857 1008.274286 1008.274286 0 0 0 386.486858-79.286857c18.870857-8.045714 34.816 12.434286 16.237714 26.185142z m46.665143-53.248c-14.336-18.432-94.793143-8.630857-130.925715-4.315428-10.825143 1.243429-12.653714-8.192-2.852571-15.140572 64.146286-45.056 169.472-32.182857 181.540571-17.042285 12.068571 15.213714-3.291429 120.685714-63.268571 171.081143-9.216 7.826286-18.066286 3.657143-13.897143-6.582858 13.458286-33.938286 43.739429-109.568 29.403429-128z" fill="#FF9900" p-id="21891"></path></svg>