<?xml version="1.0" standalone="no"?><!DOCTYPE svg PUBLIC "-//W3C//DTD SVG 1.1//EN" "http://www.w3.org/Graphics/SVG/1.1/DTD/svg11.dtd"><svg t="1760001192335" class="icon" viewBox="0 0 1024 1024" version="1.1" xmlns="http://www.w3.org/2000/svg" p-id="7834" xmlns:xlink="http://www.w3.org/1999/xlink" width="200" height="200"><path d="M172.8 172.8h160l-70.4 70.4 211.2 204.8v19.2h-19.2l-211.2-204.8-70.4 70.4z" fill="#ADD43B" p-id="7835"></path><path d="M697.6 172.8h153.6v153.6l-70.4-70.4-211.2 211.2h-19.2v-19.2l211.2-211.2z" fill="#A73A8A" p-id="7836"></path><path d="M556.8 550.4h19.2l204.8 211.2 70.4-70.4v153.6h-153.6l64-64-204.8-211.2z" fill="#F5B52E" p-id="7837"></path><path d="M454.4 550.4h19.2v19.2l-211.2 211.2 64 70.4h-153.6v-153.6l70.4 70.4z" fill="#34378B" p-id="7838"></path><path d="M172.8 377.6l70.4-76.8 172.8 172.8h-243.2z" fill="#ADD43B" p-id="7839"></path><path d="M416 550.4l-172.8 172.8-70.4-70.4v-102.4z" fill="#34378B" p-id="7840"></path><path d="M32 518.4l108.8-115.2v96h300.8l12.8 12.8-12.8 12.8h-300.8v96zM614.4 473.6l172.8-172.8 70.4 70.4v102.4z" fill="#A73A8A" p-id="7841"></path><path d="M851.2 646.4l-70.4 76.8-166.4-172.8h236.8z" fill="#F5B52E" p-id="7842"></path><path d="M576 512l6.4-12.8h300.8v-96l108.8 108.8-108.8 108.8v-96h-300.8z" fill="#34378B" p-id="7843"></path><path d="M556.8 608l166.4 172.8-70.4 64h-96z" fill="#F5B52E" p-id="7844"></path><path d="M499.2 582.4l12.8-12.8 12.8 12.8v294.4h96l-108.8 108.8-115.2-115.2h102.4v-288z" fill="#ADD43B" p-id="7845"></path><path d="M300.8 780.8l172.8-172.8v236.8h-102.4z" fill="#34378B" p-id="7846"></path><path d="M556.8 416l166.4-172.8-70.4-64h-96z" fill="#A73A8A" p-id="7847"></path><path d="M499.2 441.6l12.8 12.8 12.8-12.8v-294.4h96l-108.8-115.2-115.2 115.2h102.4v294.4z" fill="#F5B52E" p-id="7848"></path><path d="M300.8 243.2l172.8 172.8v-236.8h-102.4l-70.4 64z" fill="#ADD43B" p-id="7849"></path></svg>