<?xml version="1.0" standalone="no"?><!DOCTYPE svg PUBLIC "-//W3C//DTD SVG 1.1//EN" "http://www.w3.org/Graphics/SVG/1.1/DTD/svg11.dtd"><svg t="1760001210275" class="icon" viewBox="0 0 1024 1024" version="1.1" xmlns="http://www.w3.org/2000/svg" p-id="8907" xmlns:xlink="http://www.w3.org/1999/xlink" width="200" height="200"><path d="M512 0c282.592 0 512 229.408 512 512s-229.408 512-512 512S0 794.592 0 512 229.408 0 512 0z m139.9 754.336a68.329 68.329 0 1 0 93.312 24.928 68.349 68.349 0 0 0-93.312-24.928zM512 711.68a198.836 198.836 0 0 1-84.1-18.56l-47.488 85.12a295.835 295.835 0 0 0 210.948 19.84A95.939 95.939 0 0 1 720 723.712a295.881 295.881 0 0 0 88.32-192.64l-97.5-1.408C701.856 631.68 616.32 711.68 512 711.68zM312.32 512a199.645 199.645 0 0 1 84.9-163.424L347.3 264.9a297.311 297.311 0 0 0-122.912 172.16 94.754 94.754 0 0 1 35.424 74.24c0 30.048-13.824 56.288-35.424 74.208A297.339 297.339 0 0 0 347.3 757.632l49.92-83.84A195.609 195.609 0 0 1 312.32 512z m-148.48-68.352A68.352 68.352 0 1 0 232.16 512a68.339 68.339 0 0 0-68.32-68.352zM512 312.32c104.32 0 189.856 80 198.816 181.984l97.5-1.44A296.471 296.471 0 0 0 720 300.192a95.783 95.783 0 0 1-128.64-74.432A304.459 304.459 0 0 0 512 215.1a295.646 295.646 0 0 0-131.584 30.72l47.488 85.12a199 199 0 0 1 84.1-18.56z m139.9-42.72a68.349 68.349 0 1 0-25.088-93.28A68.44 68.44 0 0 0 651.9 269.6z" fill="#E95420" p-id="8908"></path></svg>